<svg width="130" height="33" viewBox="0 0 130 33" fill="none" xmlns="http://www.w3.org/2000/svg">
  <path d="M39.83 27.53a.49.49 0 0 1-.55.53h-1.74a.48.48 0 0 1-.54-.53V13.35a.48.48 0 0 1 .54-.52h4.34c3.83 0 5.67 1.53 5.67 4.7 0 2.38-1 3.87-3.11 4.47l3.21 5.41c.21.37.07.65-.38.65h-2a.71.71 0 0 1-.66-.37l-2.87-5.37h-1.91v5.21Zm2.05-7.59c1.95 0 2.82-.76 2.82-2.34 0-1.58-.87-2.39-2.82-2.39h-2.05v4.73h2.05Zm16.84.8v1.88a.49.49 0 0 1-.55.53h-5.88v.46c0 1.81.75 2.56 2.45 2.56a3.22 3.22 0 0 0 2.12-.78c.28-.23.54-.23.75.07l.63.9a.49.49 0 0 1-.09.73 5.33 5.33 0 0 1-3.51 1.24c-3.23 0-4.92-1.49-4.92-4.54v-3.05c0-2.82 1.6-4.36 4.5-4.36s4.5 1.54 4.5 4.36Zm-2.45.18c0-1.6-.64-2.38-2-2.38-1.36 0-2 .78-2 2.38v.35h4v-.35Zm10.95-.09c0-1.56-.61-2.29-1.91-2.29-1.3 0-1.93.73-1.93 2.29v6.7a.48.48 0 0 1-.54.53h-1.49a.48.48 0 0 1-.54-.53v-6.86c0-2.8 1.58-4.29 4.5-4.29s4.48 1.49 4.48 4.29v6.86a.491.491 0 0 1-.55.53h-1.48a.48.48 0 0 1-.54-.53v-6.7Zm11.96 6.47a.5.5 0 0 1-.28.69 5 5 0 0 1-2 .34c-2.63 0-4-1.31-4-3.88v-5.64H72a.472.472 0 0 1-.54-.53v-1.1a.47.47 0 0 1 .54-.52h1V14.2a.48.48 0 0 1 .54-.53H75a.48.48 0 0 1 .54.53v2.46h2.85a.48.48 0 0 1 .55.52v1.1a.481.481 0 0 1-.55.53h-2.86v5.64a1.53 1.53 0 0 0 1.7 1.72 2.69 2.69 0 0 0 1-.18c.33-.11.58 0 .68.3l.27 1.01ZM90 20.74V24c0 2.8-1.62 4.36-4.59 4.36-2.97 0-4.6-1.59-4.6-4.36V12.53a.48.48 0 0 1 .54-.53h1.49a.48.48 0 0 1 .54.53v4.75a3.212 3.212 0 0 1 2.43-.9c2.7 0 4.19 1.54 4.19 4.36Zm-2.57.18c0-1.6-.63-2.38-2-2.38s-2 .8-2 2.38v2.85c0 1.62.66 2.4 2 2.4 1.34 0 2-.78 2-2.4v-2.85Zm13.57-.18v1.88a.488.488 0 0 1-.024.215.49.49 0 0 1-.301.294.48.48 0 0 1-.215.021h-5.85v.46c0 1.81.76 2.56 2.45 2.56a3.22 3.22 0 0 0 2.12-.78c.28-.23.54-.23.75.07l.64.9a.498.498 0 0 1 .12.385.485.485 0 0 1-.21.345A5.33 5.33 0 0 1 97 28.33c-3.23 0-4.93-1.49-4.93-4.54v-3.05c0-2.82 1.61-4.36 4.5-4.36 2.89 0 4.43 1.54 4.43 4.36Zm-2.45.18c0-1.6-.63-2.38-2-2.38s-2 .78-2 2.38v.35h4v-.35Zm4.59-.23c0-2.82 1.39-4.31 4.1-4.31a5.179 5.179 0 0 1 2.63.64.491.491 0 0 1 .19.71l-.54.94c-.16.33-.4.35-.73.19a2.8 2.8 0 0 0-1.29-.32c-1.21 0-1.79.68-1.79 2.08v6.91a.492.492 0 0 1-.55.53h-1.48a.48.48 0 0 1-.515-.315.48.48 0 0 1-.025-.215v-6.84Zm8.24 0c0-2.82 1.39-4.31 4.1-4.31a5.24 5.24 0 0 1 2.64.64.5.5 0 0 1 .19.71l-.54.94c-.17.33-.41.35-.74.19a2.77 2.77 0 0 0-1.29-.32c-1.2 0-1.79.68-1.79 2.08v6.91a.475.475 0 0 1-.141.397.48.48 0 0 1-.399.133h-1.49a.48.48 0 0 1-.54-.53v-6.84Zm17.08-4.03a.476.476 0 0 1 .512.309c.025.067.035.14.028.211v10.65c0 2.59-1.72 4.17-4.62 4.17a6.11 6.11 0 0 1-3.84-1.19.508.508 0 0 1-.211-.35.504.504 0 0 1 .121-.39l.61-.91c.19-.33.45-.35.76-.12a4.001 4.001 0 0 0 2.42.8 1.929 1.929 0 0 0 2.19-2.13V27a3.212 3.212 0 0 1-2.43.9c-2.54 0-3.93-1.52-3.93-4.29v-6.43a.47.47 0 0 1 .54-.52h1.48a.476.476 0 0 1 .512.309c.025.067.035.14.028.211v6.27c0 1.58.62 2.31 1.94 2.31 1.32 0 1.9-.78 1.9-2.31v-6.27a.476.476 0 0 1 .328-.5.476.476 0 0 1 .212-.02h1.45Z" fill="#fff"/>
  <path d="M25.93 30H4.07A4.07 4.07 0 0 1 0 25.93V11.379a4.07 4.07 0 0 1 1.81-3.38L12.73.689a4.07 4.07 0 0 1 4.53 0l10.93 7.31a4.07 4.07 0 0 1 1.81 3.4v14.53A4.07 4.07 0 0 1 25.93 30Z" fill="url(#a)"/>
  <path d="M24.33 30a7.68 7.68 0 0 1-5.6-7.389.822.822 0 0 1 .4-.7 4.81 4.81 0 0 0-2.5-8.899H12a2.05 2.05 0 0 0-2 2.06V30h14.33Z" fill="url(#b)"/>
  <defs>
    <linearGradient id="a" x1="16.556" y1="-.002" x2="4.836" y2="30.656" gradientUnits="userSpaceOnUse">
      <stop stop-color="#86B6FF"/>
      <stop offset="1" stop-color="#247CFF"/>
    </linearGradient>
    <linearGradient id="b" x1="11.1" y1="13.015" x2="17.163" y2="30" gradientUnits="userSpaceOnUse">
      <stop stop-color="#FFCC16"/>
      <stop offset="1" stop-color="#FFD600"/>
    </linearGradient>
  </defs>
</svg>
